<svg xmlns="http://www.w3.org/2000/svg" viewBox="0 8.649999618530273 260.70001220703125 40.25" data-asc="0.965"><g fill="#000000"><g fill="#000000" transform="translate(0, 0)"><path d="M3.05 48.60Q1.60 48.60 0.80 47.50Q0 46.40 0 43.50Q0 41.45 0.48 38.58Q0.95 35.70 1.80 32.42Q2.65 29.15 3.80 25.88Q4.95 22.60 6.30 19.75Q7.80 16.50 9.20 14.67Q10.60 12.85 12.05 12.07Q13.50 11.30 15.10 11.30Q17.50 11.30 19.53 13.20Q21.55 15.10 23.40 19.50Q24.75 22.85 25.85 26.85Q26.95 30.85 27.58 34.95Q28.20 39.05 28.20 42.70Q28.20 45.75 27.18 47.17Q26.15 48.60 24.35 48.60Q22.60 48.60 21.65 47.05Q20.70 45.50 20.30 41.90Q20.10 39.70 20.10 37.33Q20.10 34.95 20.30 32.80L21.15 36.65Q19.40 37.25 16.78 37.42Q14.15 37.60 11.33 37.33Q8.50 37.05 6.05 36.30L8.70 32.90Q8.75 35.30 8.45 37.58Q8.15 39.85 7.75 41.75Q7.35 43.95 6.80 45.50Q6.25 47.05 5.38 47.83Q4.50 48.60 3.05 48.60M14.80 31.55Q17.70 31.55 19.03 30.68Q20.35 29.80 20.35 28.10Q20.35 26.90 19.93 25.13Q19.50 23.35 18.75 21.65Q18 19.95 17.03 18.80Q16.05 17.65 14.90 17.65Q13.80 17.65 12.83 18.82Q11.85 20 11.10 21.75Q10.35 23.50 9.90 25.32Q9.45 27.15 9.45 28.45Q9.45 29.95 10.78 30.75Q12.10 31.55 14.80 31.55ZM38.15 48.35Q36.60 48.35 35.70 47.63Q34.80 46.90 34.25 45.20Q33.50 42.70 33.13 38.88Q32.75 35.05 32.75 29.45Q32.75 26 33.03 22.52Q33.30 19.05 33.75 16.17Q34.20 13.30 34.70 11.70Q35.25 10 36 9.35Q36.75 8.70 37.70 8.70Q38.70 8.70 39.30 9.38Q39.90 10.05 40.25 11.75Q40.55 13.40 40.73 15.80Q40.90 18.20 40.90 20.95Q40.90 24.70 40.55 28.85Q40.20 33 39.63 37Q39.05 41 38.25 44.35L36.85 43.65Q38.15 42.05 39.83 41.15Q41.50 40.25 42.90 40.25Q44.05 40.25 44.68 40.88Q45.30 41.50 45.30 42.80Q45.30 44.10 44.18 45.40Q43.05 46.70 41.40 47.52Q39.75 48.35 38.15 48.35ZM63.85 48.65Q58.30 48.65 55.00 47Q51.70 45.35 50.25 42.25Q48.80 39.15 48.80 34.85Q48.80 29.40 50.83 25.57Q52.85 21.75 56.43 19.70Q60.00 17.65 64.55 17.65Q69.90 17.65 72.40 20.13Q74.90 22.60 74.90 26.60Q74.90 29.80 73.23 32.13Q71.55 34.45 68.60 35.70Q65.65 36.95 61.80 36.95Q59.65 36.95 57.65 36.40Q55.65 35.85 54.05 34.90L55.25 32.70Q55.10 33.90 55.10 35.10Q55.10 38.60 57.30 40.13Q59.50 41.65 63.55 41.65Q66.70 41.65 68.60 41.10Q70.50 40.55 71.80 40.02Q73.10 39.50 74.35 39.50Q75.05 39.50 75.63 39.88Q76.20 40.25 76.58 40.95Q76.95 41.65 76.95 42.65Q76.95 44.15 75.45 45.52Q73.95 46.90 71.03 47.77Q68.10 48.65 63.85 48.65M60.95 32.30Q64.50 32.30 66.65 30.80Q68.80 29.30 68.80 27.10Q68.80 25.35 67.63 24.22Q66.45 23.10 63.95 23.10Q61.60 23.10 59.73 23.97Q57.85 24.85 56.80 26.25Q55.75 27.65 55.75 29.30Q55.75 30.75 57.13 31.52Q58.50 32.30 60.95 32.30ZM103.20 48.75Q101.50 48.75 100.88 47.42Q100.25 46.10 100.15 43.20L100.65 43.45Q97.85 48.90 90.05 48.90Q86.50 48.90 84.15 47.63Q81.80 46.35 80.68 44.23Q79.55 42.10 79.55 39.60Q79.55 35.30 82.55 32.77Q85.55 30.25 90.50 30.25Q93.75 30.25 96.15 31.20Q98.55 32.15 100.25 33.85L99.40 33.75Q99.05 28.70 97.23 26.52Q95.40 24.35 92.05 24.35Q90.10 24.35 88.45 24.95Q86.80 25.55 85.43 26.17Q84.05 26.80 82.85 26.80Q81.65 26.80 80.98 26Q80.30 25.20 80.30 23.95Q80.30 22.15 82.03 20.55Q83.75 18.95 86.60 17.95Q89.45 16.95 92.80 16.95Q96.85 16.95 99.75 18.90Q102.65 20.85 104.15 24.60Q105.45 27.80 106.00 31.75Q106.55 35.70 106.55 40.20Q106.55 43.60 106.20 45.45Q105.85 47.30 105.13 48.02Q104.40 48.75 103.20 48.75M92.15 43.15Q93.80 43.15 95.50 42.67Q97.20 42.20 98.35 41.25Q99.50 40.30 99.50 38.90Q99.50 37.70 98.53 36.92Q97.55 36.15 95.98 35.75Q94.40 35.35 92.60 35.35Q89.55 35.35 87.98 36.40Q86.40 37.45 86.40 39.20Q86.40 41.10 87.88 42.13Q89.35 43.15 92.15 43.15ZM117.80 8.65Q119.40 8.65 120.03 9.90Q120.65 11.15 120.65 13.65Q120.65 15.80 120.40 19.05Q120.15 22.30 119.75 25.30L119.45 25.30Q121.10 22.20 123.70 20.30Q126.30 18.40 129.20 18.40Q131.75 18.40 133.75 19.63Q135.75 20.85 137 23.45Q138.15 25.80 138.70 29.02Q139.25 32.25 139.25 35.15Q139.25 39.80 138.63 42.55Q138 45.30 136.90 46.52Q135.80 47.75 134.30 47.75Q131.15 47.75 131.15 42.60Q131.15 40.10 131.43 37.45Q131.70 34.80 131.70 32.60Q131.70 28.85 130.53 26.97Q129.35 25.10 127.15 25.10Q124.40 25.10 122.70 27.55Q121.00 30 121.00 34.30Q121.00 36.55 121.40 39.23Q121.80 41.90 121.80 44.10Q121.80 46.55 120.88 47.63Q119.95 48.70 118.50 48.70Q117.40 48.70 116.58 48.27Q115.75 47.85 115.18 46.58Q114.60 45.30 114.20 42.75Q113.90 40.80 113.60 38.20Q113.30 35.60 113.10 32.75Q112.90 29.90 112.78 27.17Q112.65 24.45 112.65 22.20Q112.65 15.10 114.00 11.88Q115.35 8.65 117.80 8.65ZM169.45 12.30Q175.40 12.30 178.23 15.35Q181.05 18.40 181.05 23.35Q181.05 26.75 179.48 29.25Q177.90 31.75 175.20 33.13Q172.50 34.50 169.10 34.50Q167.50 34.50 165.73 34.15Q163.95 33.80 162.05 32.80L162.30 32.15Q162.70 33.40 162.98 35.23Q163.25 37.05 163.43 38.98Q163.60 40.90 163.60 42.50Q163.60 45.45 162.63 47.02Q161.65 48.60 159.75 48.60Q158.15 48.60 157.23 47.60Q156.30 46.60 155.95 44.30Q155.60 42 155.60 38.15Q155.60 30.75 156.28 25.52Q156.95 20.30 158.60 17.30Q159.90 15 162.63 13.65Q165.35 12.30 169.45 12.30M168.50 28.60Q171.50 28.60 173.38 27Q175.25 25.40 175.25 22.35Q175.25 20.35 173.93 19.02Q172.60 17.70 169.80 17.70Q167.75 17.70 166.25 18.63Q164.75 19.55 163.98 21.17Q163.20 22.80 163.20 24.90Q163.20 26.85 164.48 27.72Q165.75 28.60 168.50 28.60ZM199.35 48.65Q193.80 48.65 190.50 47Q187.20 45.35 185.75 42.25Q184.30 39.15 184.30 34.85Q184.30 29.40 186.33 25.57Q188.35 21.75 191.93 19.70Q195.50 17.65 200.05 17.65Q205.40 17.65 207.90 20.13Q210.40 22.60 210.40 26.60Q210.40 29.80 208.73 32.13Q207.05 34.45 204.10 35.70Q201.15 36.95 197.30 36.95Q195.15 36.95 193.15 36.40Q191.15 35.85 189.55 34.90L190.75 32.70Q190.60 33.90 190.60 35.10Q190.60 38.60 192.80 40.13Q195 41.65 199.05 41.65Q202.20 41.65 204.10 41.10Q206 40.55 207.30 40.02Q208.60 39.50 209.85 39.50Q210.55 39.50 211.13 39.88Q211.70 40.25 212.08 40.95Q212.45 41.65 212.45 42.65Q212.45 44.15 210.95 45.52Q209.45 46.90 206.53 47.77Q203.60 48.65 199.35 48.65M196.45 32.30Q200 32.30 202.15 30.80Q204.30 29.30 204.30 27.10Q204.30 25.35 203.13 24.22Q201.95 23.10 199.45 23.10Q197.10 23.10 195.23 23.97Q193.35 24.85 192.30 26.25Q191.25 27.65 191.25 29.30Q191.25 30.75 192.63 31.52Q194 32.30 196.45 32.30ZM238.70 48.75Q237 48.75 236.38 47.42Q235.75 46.10 235.65 43.20L236.15 43.45Q233.35 48.90 225.55 48.90Q222 48.90 219.65 47.63Q217.30 46.35 216.18 44.23Q215.05 42.10 215.05 39.60Q215.05 35.30 218.05 32.77Q221.05 30.25 226 30.25Q229.25 30.25 231.65 31.20Q234.05 32.15 235.75 33.85L234.90 33.75Q234.55 28.70 232.73 26.52Q230.90 24.35 227.55 24.35Q225.60 24.35 223.95 24.95Q222.30 25.55 220.93 26.17Q219.55 26.80 218.35 26.80Q217.15 26.80 216.48 26Q215.80 25.20 215.80 23.95Q215.80 22.15 217.53 20.55Q219.25 18.95 222.10 17.95Q224.95 16.95 228.30 16.95Q232.35 16.95 235.25 18.90Q238.15 20.85 239.65 24.60Q240.95 27.80 241.50 31.75Q242.05 35.70 242.05 40.20Q242.05 43.60 241.70 45.45Q241.35 47.30 240.63 48.02Q239.90 48.75 238.70 48.75M227.65 43.15Q229.30 43.15 231 42.67Q232.70 42.20 233.85 41.25Q235 40.30 235 38.90Q235 37.70 234.03 36.92Q233.05 36.15 231.48 35.75Q229.90 35.35 228.10 35.35Q225.05 35.35 223.48 36.40Q221.90 37.45 221.90 39.20Q221.90 41.10 223.38 42.13Q224.85 43.15 227.65 43.15ZM253.55 48.35Q252.00 48.35 251.10 47.63Q250.20 46.90 249.65 45.20Q248.90 42.70 248.53 38.88Q248.15 35.05 248.15 29.45Q248.15 26 248.43 22.52Q248.70 19.05 249.15 16.17Q249.60 13.30 250.10 11.70Q250.65 10 251.40 9.35Q252.15 8.70 253.10 8.70Q254.10 8.70 254.70 9.38Q255.30 10.05 255.65 11.75Q255.95 13.40 256.13 15.80Q256.30 18.20 256.30 20.95Q256.30 24.70 255.95 28.85Q255.60 33 255.03 37Q254.45 41 253.65 44.35L252.25 43.65Q253.55 42.05 255.23 41.15Q256.90 40.25 258.30 40.25Q259.45 40.25 260.08 40.88Q260.70 41.50 260.70 42.80Q260.70 44.10 259.58 45.40Q258.45 46.70 256.80 47.52Q255.15 48.35 253.55 48.35Z"/></g></g></svg>